<svg xmlns="http://www.w3.org/2000/svg" xmlns:xlink="http://www.w3.org/1999/xlink" width="500" zoomAndPan="magnify" viewBox="0 0 375 374.999991" height="500" preserveAspectRatio="xMidYMid meet" version="1.2"><defs><clipPath id="257281f59a"><path d="M 46 10 L 321 10 L 321 364 L 46 364 Z M 46 10 "/></clipPath><clipPath id="0c77a98638"><path d="M 26.839844 40.410156 L 296.835938 0.0117188 L 348.109375 342.699219 L 78.113281 383.09375 Z M 26.839844 40.410156 "/></clipPath><clipPath id="59082c82ba"><path d="M 26.839844 40.410156 L 296.835938 0.0117188 L 348.109375 342.699219 L 78.113281 383.09375 Z M 26.839844 40.410156 "/></clipPath><clipPath id="ff06f5d706"><path d="M 122 140 L 248 140 L 248 320 L 122 320 Z M 122 140 "/></clipPath><clipPath id="ac52221cce"><path d="M 26.839844 40.410156 L 296.835938 0.0117188 L 348.109375 342.699219 L 78.113281 383.09375 Z M 26.839844 40.410156 "/></clipPath><clipPath id="ce4de6a81f"><path d="M 26.839844 40.410156 L 296.835938 0.0117188 L 348.109375 342.699219 L 78.113281 383.09375 Z M 26.839844 40.410156 "/></clipPath></defs><g id="eeffcb0aaa"><g clip-rule="nonzero" clip-path="url(#257281f59a)"><g clip-rule="nonzero" clip-path="url(#0c77a98638)"><g clip-rule="nonzero" clip-path="url(#59082c82ba)"><path style=" stroke:none;fill-rule:evenodd;fill:#a21825;fill-opacity:1;" d="M 296.96875 93.785156 C 289.660156 70.445312 276.738281 42.078125 262.429688 25.90625 C 255.996094 18.632812 249.015625 13.511719 241.652344 11.714844 C 232.988281 9.597656 224.636719 11.808594 217.070312 19.875 C 209.933594 27.472656 203.507812 41.074219 198.378906 62.558594 L 139.039062 71.4375 C 127.84375 52.394531 117.722656 41.277344 108.671875 36.09375 C 99.078125 30.59375 90.449219 30.925781 82.777344 35.488281 C 76.269531 39.359375 71.085938 46.300781 67.066406 55.136719 C 58.058594 74.941406 54.007812 106.179688 53.910156 130.722656 C 47.679688 145.886719 45.316406 162.84375 47.90625 180.148438 L 49.296875 189.445312 C 55.046875 227.871094 83.632812 257.519531 119.179688 266.640625 C 119.082031 274.03125 119.515625 281.183594 120.476562 288.027344 C 123.34375 308.601562 130.933594 326.257812 142.675781 339.351562 C 154.726562 352.796875 170.941406 361.320312 190.726562 363.210938 C 197.679688 363.875 205.109375 363.699219 213 362.601562 L 213.144531 362.578125 C 221.011719 361.320312 228.167969 359.3125 234.621094 356.644531 C 252.984375 349.039062 265.996094 336.148438 273.585938 319.765625 C 280.972656 303.816406 283.070312 284.710938 279.792969 264.191406 C 278.699219 257.375 277.027344 250.40625 274.769531 243.367188 C 285.25 236.972656 294.3125 228.601562 301.519531 218.871094 C 315.851562 199.503906 322.828125 174.679688 319 149.101562 L 317.609375 139.800781 C 314.980469 122.253906 307.601562 106.542969 296.96875 93.785156 Z M 230.730469 32.679688 C 233.066406 30.191406 235.253906 29.414062 237.246094 29.90625 C 240.554688 30.710938 244.375 33.789062 248.394531 38.335938 C 255.421875 46.285156 262.15625 57.902344 267.882812 70.34375 C 264.128906 68.390625 260.230469 66.679688 256.230469 65.226562 C 256.230469 65.226562 256.238281 65.226562 256.238281 65.226562 C 246.066406 45.207031 235.210938 36.363281 228.128906 59.746094 C 224.90625 59.625 221.65625 59.664062 218.382812 59.882812 C 222.183594 46.011719 226.363281 37.320312 230.730469 32.679688 Z M 84.128906 62.90625 C 86.644531 57.378906 89.394531 53.328125 92.320312 51.582031 C 94.09375 50.527344 96.410156 50.632812 99.367188 52.328125 C 104.894531 55.496094 111.441406 62.578125 119.144531 74.738281 C 116.574219 75.347656 114.042969 76.066406 111.5625 76.878906 C 98.300781 57.339844 90.597656 68.210938 86.683594 89.464844 C 82.449219 92.472656 78.488281 95.816406 74.832031 99.449219 C 76.664062 85.789062 79.714844 72.613281 84.128906 62.90625 Z M 256.589844 311.902344 C 250.984375 324.007812 241.269531 333.582031 227.496094 339.285156 C 222.289062 341.433594 216.558594 343.050781 210.300781 344.058594 C 204.019531 344.925781 198.070312 345.066406 192.460938 344.527344 C 177.621094 343.105469 165.53125 336.796875 156.625 326.859375 C 147.402344 316.578125 141.378906 302.3125 139.027344 285.398438 C 138.316406 280.324219 137.945312 274.996094 137.921875 269.453125 C 143.929688 269.742188 150.054688 269.445312 156.210938 268.523438 L 190.972656 263.324219 L 193.367188 279.335938 C 189.648438 281.132812 186.472656 283.8125 184.078125 287.050781 C 180.230469 292.253906 178.363281 298.925781 179.394531 305.824219 C 180.429688 312.726562 184.160156 318.558594 189.367188 322.40625 C 194.566406 326.25 201.238281 328.117188 208.140625 327.085938 C 215.039062 326.054688 220.875 322.324219 224.71875 317.117188 C 228.566406 311.914062 230.433594 305.242188 229.402344 298.34375 C 228.367188 291.441406 224.632812 285.609375 219.429688 281.761719 C 216.191406 279.367188 212.371094 277.734375 208.289062 277.101562 L 205.894531 261.089844 L 239.902344 256.003906 C 246.070312 255.078125 252.003906 253.570312 257.671875 251.535156 C 259.273438 256.839844 260.46875 262.039062 261.28125 267.097656 C 263.984375 283.960938 262.398438 299.363281 256.589844 311.902344 Z M 201.773438 284.535156 C 206.621094 283.808594 211.304688 285.117188 214.960938 287.824219 C 218.609375 290.53125 221.234375 294.625 221.960938 299.472656 C 222.683594 304.320312 221.375 309.003906 218.675781 312.660156 C 215.972656 316.316406 211.875 318.941406 207.03125 319.664062 C 202.183594 320.390625 197.5 319.082031 193.839844 316.375 C 190.183594 313.679688 187.570312 309.574219 186.84375 304.726562 C 186.117188 299.878906 187.425781 295.195312 190.125 291.539062 C 192.832031 287.882812 196.925781 285.257812 201.773438 284.535156 Z M 300.398438 151.878906 C 303.457031 172.324219 297.863281 192.179688 286.398438 207.6875 C 274.925781 223.199219 257.585938 234.347656 237.128906 237.410156 L 153.429688 249.933594 C 112.511719 256.054688 74.019531 227.582031 67.898438 186.664062 L 66.507812 177.363281 C 63.445312 156.917969 69.039062 137.0625 80.503906 121.554688 C 91.980469 106.050781 109.328125 94.890625 129.773438 91.832031 L 213.472656 79.308594 C 254.394531 73.1875 292.882812 101.660156 299.007812 142.578125 Z M 267.921875 148.503906 L 268.9375 155.300781 C 271.175781 170.246094 267.089844 184.753906 258.707031 196.089844 C 250.320312 207.425781 237.640625 215.582031 222.695312 217.816406 L 161.511719 226.96875 C 131.597656 231.445312 103.464844 210.632812 98.988281 180.722656 L 97.96875 173.921875 C 95.734375 158.972656 99.816406 144.460938 108.203125 133.132812 C 116.589844 121.796875 129.269531 113.644531 144.222656 111.40625 L 205.40625 102.253906 C 235.3125 97.785156 263.449219 118.597656 267.921875 148.503906 Z M 267.921875 148.503906 "/></g></g></g><g clip-rule="nonzero" clip-path="url(#ff06f5d706)"><g clip-rule="nonzero" clip-path="url(#ac52221cce)"><g clip-rule="nonzero" clip-path="url(#ce4de6a81f)"><path style=" stroke:none;fill-rule:nonzero;fill:#ffffff;fill-opacity:1;" d="M 214.960938 287.816406 C 218.609375 290.523438 221.234375 294.617188 221.957031 299.464844 C 222.683594 304.3125 221.375 308.996094 218.675781 312.652344 C 215.972656 316.308594 211.875 318.933594 207.027344 319.65625 C 202.179688 320.382812 197.496094 319.074219 193.839844 316.367188 C 190.183594 313.671875 187.566406 309.566406 186.84375 304.71875 C 186.117188 299.871094 187.425781 295.1875 190.125 291.53125 C 192.820312 287.875 196.925781 285.25 201.773438 284.527344 C 206.628906 283.808594 211.3125 285.117188 214.960938 287.816406 Z M 151.226562 153.636719 C 147.9375 152.539062 144.523438 152.332031 141.242188 152.894531 C 137.976562 153.457031 134.859375 154.789062 132.125 156.789062 C 125.992188 161.273438 121.769531 169.085938 122.359375 179.023438 C 122.417969 180.015625 122.851562 180.855469 123.628906 181.472656 C 124.40625 182.089844 125.324219 182.324219 126.308594 182.164062 L 127.03125 182.039062 C 128.738281 181.75 129.941406 180.238281 129.847656 178.515625 C 129.457031 171.390625 132.335938 165.910156 136.53125 162.84375 C 138.335938 161.523438 140.378906 160.644531 142.492188 160.28125 C 144.585938 159.917969 146.769531 160.050781 148.875 160.753906 C 154.007812 162.464844 158.742188 167.566406 161.023438 177.03125 C 161.433594 178.761719 163.109375 179.875 164.867188 179.582031 L 165.574219 179.46875 C 166.535156 179.308594 167.300781 178.8125 167.839844 178 C 168.382812 177.183594 168.539062 176.289062 168.316406 175.335938 C 165.347656 162.953125 158.625 156.097656 151.226562 153.636719 Z M 231.171875 141.976562 C 227.972656 140.863281 224.59375 140.507812 221.3125 140.925781 C 218.011719 141.347656 214.808594 142.542969 211.984375 144.554688 C 205.632812 149.074219 201.207031 157.597656 201.996094 170.3125 C 202.054688 171.289062 202.472656 172.097656 203.226562 172.71875 C 203.984375 173.339844 204.859375 173.589844 205.824219 173.460938 L 206.535156 173.363281 C 208.300781 173.132812 209.578125 171.574219 209.464844 169.800781 C 208.878906 160.089844 211.910156 153.816406 216.316406 150.679688 C 218.125 149.390625 220.171875 148.625 222.28125 148.359375 C 224.410156 148.089844 226.617188 148.332031 228.730469 149.066406 C 233.640625 150.765625 238.003906 155.167969 239.710938 162.09375 C 240.125 163.777344 241.714844 164.863281 243.433594 164.636719 L 244.164062 164.546875 C 245.152344 164.414062 245.949219 163.929688 246.511719 163.105469 C 247.078125 162.285156 247.253906 161.355469 247.011719 160.390625 C 244.671875 150.699219 238.347656 144.460938 231.171875 141.976562 Z M 231.171875 141.976562 "/></g></g></g></g></svg>